HIERARCHY
ROOT Hips
{
	OFFSET 0.000000 83.214638 0.000000
	CHANNELS 6 Xposition Yposition Zposition Xrotation Yrotation Zrotation
	JOINT Pelvis
	{
		OFFSET 0.000000 0.000000 0.000000
		CHANNELS 3 Xrotation Yrotation Zrotation
		JOINT LeftUpLeg
		{
			OFFSET 8.479700 -4.795502 -0.379100
			CHANNELS 3 Xrotation Yrotation Zrotation
			JOINT LeftLeg
			{
				OFFSET 0.024144 -32.555107 0.112900
				CHANNELS 3 Xrotation Yrotation Zrotation
				JOINT LeftFoot
				{
					OFFSET -0.024144 -32.638630 -3.012600
					CHANNELS 3 Xrotation Yrotation Zrotation
					JOINT LeftToeBase
					{
						OFFSET 0.970200 -13.225400 11.864200
						CHANNELS 3 Xrotation Yrotation Zrotation
						End Site
						{
							OFFSET 0.000000 12.319262 0.000000
						}
					}
					JOINT LFootTongue
					{
						OFFSET 1.142400 -1.059800 6.665200
						CHANNELS 3 Xrotation Yrotation Zrotation
						End Site
						{
							OFFSET 0.000000 12.319262 0.000000
						}
					}
				}
				JOINT LeftPantLeg
				{
					OFFSET 0.918482 -16.533964 -2.284700
					CHANNELS 3 Xrotation Yrotation Zrotation
					End Site
					{
						OFFSET 0.350399 24.744368 0.000000
					}
				}
			}
		}
		JOINT RightUpLeg
		{
			OFFSET -8.479700 -4.795502 -0.379100
			CHANNELS 3 Xrotation Yrotation Zrotation
			JOINT RightLeg
			{
				OFFSET -0.023144 -32.555092 0.112900
				CHANNELS 3 Xrotation Yrotation Zrotation
				JOINT RightFoot
				{
					OFFSET 0.023144 -32.638641 -3.012700
					CHANNELS 3 Xrotation Yrotation Zrotation
					JOINT RightToeBase
					{
						OFFSET -0.970200 -13.225400 11.864200
						CHANNELS 3 Xrotation Yrotation Zrotation
						End Site
						{
							OFFSET 0.000000 12.319244 0.000000
						}
					}
					JOINT RFootTongue
					{
						OFFSET -1.142200 -1.059800 6.665200
						CHANNELS 3 Xrotation Yrotation Zrotation
						End Site
						{
							OFFSET 0.000000 12.319243 0.000000
						}
					}
				}
				JOINT RightPantLeg
				{
					OFFSET -0.919482 -16.533978 -2.284800
					CHANNELS 3 Xrotation Yrotation Zrotation
					End Site
					{
						OFFSET -0.350400 24.744419 0.000000
					}
				}
			}
		}
	}
	JOINT Spine
	{
		OFFSET 0.000000 7.722000 1.166200
		CHANNELS 3 Xrotation Yrotation Zrotation
		JOINT Spine1
		{
			OFFSET 0.000000 12.024101 0.248800
			CHANNELS 3 Xrotation Yrotation Zrotation
			JOINT Spine2
			{
				OFFSET 0.000000 11.502998 -0.491200
				CHANNELS 3 Xrotation Yrotation Zrotation
				JOINT Neck
				{
					OFFSET 0.000000 18.430702 -3.123100
					CHANNELS 3 Xrotation Yrotation Zrotation
					JOINT Head
					{
						OFFSET 0.000000 9.051102 1.034000
						CHANNELS 3 Xrotation Yrotation Zrotation
						JOINT HairB
						{
							OFFSET 0.208400 24.786102 24.822300
							CHANNELS 3 Xrotation Yrotation Zrotation
							End Site
							{
								OFFSET 0.000000 32.263779 0.000000
							}
						}
						JOINT HairA
						{
							OFFSET -7.081100 24.428299 23.196600
							CHANNELS 3 Xrotation Yrotation Zrotation
							End Site
							{
								OFFSET 0.000000 32.263779 0.000000
							}
						}
						JOINT Hat
						{
							OFFSET 16.728800 15.048294 -15.439601
							CHANNELS 3 Xrotation Yrotation Zrotation
							End Site
							{
								OFFSET 0.000000 32.263779 0.000000
							}
						}
					}
				}
				JOINT LeftShoulder
				{
					OFFSET 6.197800 13.665199 -4.064700
					CHANNELS 3 Xrotation Yrotation Zrotation
					JOINT LeftArm
					{
						OFFSET 7.778100 -0.187103 -1.709300
						CHANNELS 3 Xrotation Yrotation Zrotation
						JOINT LeftForeArm
						{
							OFFSET 22.049376 0.000000 0.000000
							CHANNELS 3 Xrotation Yrotation Zrotation
							JOINT LeftHand
							{
								OFFSET 23.009392 0.000000 0.000000
								CHANNELS 3 Xrotation Yrotation Zrotation
								JOINT LeftHandThumb1
								{
									OFFSET 3.507191 -2.063065 3.133727
									CHANNELS 3 Xrotation Yrotation Zrotation
									JOINT LeftHandThumb2
									{
										OFFSET 3.101337 -1.790558 1.790558
										CHANNELS 3 Xrotation Yrotation Zrotation
										JOINT LeftHandThumb3
										{
											OFFSET 3.058640 -1.765907 1.765906
											CHANNELS 3 Xrotation Yrotation Zrotation
											End Site
											{
												OFFSET -0.415260 3.926476 -0.049563
											}
										}
									}
								}
								JOINT LeftHandIndex1
								{
									OFFSET 11.334419 -0.901459 3.706815
									CHANNELS 3 Xrotation Yrotation Zrotation
									JOINT LeftHandIndex2
									{
										OFFSET 3.283112 0.000000 0.000000
										CHANNELS 3 Xrotation Yrotation Zrotation
										JOINT LeftHandIndex3
										{
											OFFSET 3.323853 0.000000 0.000000
											CHANNELS 3 Xrotation Yrotation Zrotation
											End Site
											{
												OFFSET -1.135597 3.097809 0.402452
											}
										}
									}
								}
								JOINT LeftHandMiddle1
								{
									OFFSET 11.335861 0.000000 0.000000
									CHANNELS 3 Xrotation Yrotation Zrotation
									JOINT LeftHandMiddle2
									{
										OFFSET 3.410492 0.000000 0.000000
										CHANNELS 3 Xrotation Yrotation Zrotation
										JOINT LeftHandMiddle3
										{
											OFFSET 3.312172 0.000000 0.000000
											CHANNELS 3 Xrotation Yrotation Zrotation
											End Site
											{
												OFFSET -1.150200 3.080154 0.400270
											}
										}
									}
								}
								JOINT LeftHandRing1
								{
									OFFSET 11.514786 -0.013176 -3.003090
									CHANNELS 3 Xrotation Yrotation Zrotation
									JOINT LeftHandRing2
									{
										OFFSET 3.053307 0.000000 0.000000
										CHANNELS 3 Xrotation Yrotation Zrotation
										JOINT LeftHandRing3
										{
											OFFSET 3.295807 0.000000 0.000000
											CHANNELS 3 Xrotation Yrotation Zrotation
											End Site
											{
												OFFSET -1.281006 3.013344 0.375733
											}
										}
									}
								}
								JOINT LeftHandPinky1
								{
									OFFSET 10.518692 -0.960396 -5.730441
									CHANNELS 3 Xrotation Yrotation Zrotation
									JOINT LeftHandPinky2
									{
										OFFSET 2.861649 0.000000 0.000000
										CHANNELS 3 Xrotation Yrotation Zrotation
										JOINT LeftHandPinky3
										{
											OFFSET 2.863380 0.000000 0.000000
											CHANNELS 3 Xrotation Yrotation Zrotation
											End Site
											{
												OFFSET -0.843597 2.711159 0.369971
											}
										}
									}
								}
							}
							JOINT LSleeve
							{
								OFFSET 6.676277 -0.344902 -1.011730
								CHANNELS 3 Xrotation Yrotation Zrotation
								End Site
								{
									OFFSET 0.000000 14.885353 0.000000
								}
							}
						}
					}
				}
				JOINT RightShoulder
				{
					OFFSET -6.197800 13.665199 -4.064700
					CHANNELS 3 Xrotation Yrotation Zrotation
					JOINT RightArm
					{
						OFFSET -7.778100 -0.187103 -1.709300
						CHANNELS 3 Xrotation Yrotation Zrotation
						JOINT RightForeArm
						{
							OFFSET -22.049376 0.000000 0.000000
							CHANNELS 3 Xrotation Yrotation Zrotation
							JOINT RightHand
							{
								OFFSET -23.009392 0.000000 0.000000
								CHANNELS 3 Xrotation Yrotation Zrotation
								JOINT RightHandThumb1
								{
									OFFSET -3.507191 -2.063065 3.133727
									CHANNELS 3 Xrotation Yrotation Zrotation
									JOINT RightHandThumb2
									{
										OFFSET -3.101337 -1.790558 1.790558
										CHANNELS 3 Xrotation Yrotation Zrotation
										JOINT RightHandThumb3
										{
											OFFSET -3.058640 -1.765907 1.765906
											CHANNELS 3 Xrotation Yrotation Zrotation
											End Site
											{
												OFFSET 0.415260 3.926476 -0.049563
											}
										}
									}
								}
								JOINT RightHandIndex1
								{
									OFFSET -11.334419 -0.901459 3.706815
									CHANNELS 3 Xrotation Yrotation Zrotation
									JOINT RightHandIndex2
									{
										OFFSET -3.283112 0.000000 0.000000
										CHANNELS 3 Xrotation Yrotation Zrotation
										JOINT RightHandIndex3
										{
											OFFSET -3.323853 0.000000 0.000000
											CHANNELS 3 Xrotation Yrotation Zrotation
											End Site
											{
												OFFSET 1.135597 3.097809 0.402452
											}
										}
									}
								}
								JOINT RightHandMiddle1
								{
									OFFSET -11.335861 0.000000 0.000000
									CHANNELS 3 Xrotation Yrotation Zrotation
									JOINT RightHandMiddle2
									{
										OFFSET -3.410492 0.000000 0.000000
										CHANNELS 3 Xrotation Yrotation Zrotation
										JOINT RightHandMiddle3
										{
											OFFSET -3.312172 0.000000 0.000000
											CHANNELS 3 Xrotation Yrotation Zrotation
											End Site
											{
												OFFSET 1.150200 3.080154 0.400270
											}
										}
									}
								}
								JOINT RightHandRing1
								{
									OFFSET -11.514786 -0.013176 -3.003090
									CHANNELS 3 Xrotation Yrotation Zrotation
									JOINT RightHandRing2
									{
										OFFSET -3.053307 0.000000 0.000000
										CHANNELS 3 Xrotation Yrotation Zrotation
										JOINT RightHandRing3
										{
											OFFSET -3.295807 0.000000 0.000000
											CHANNELS 3 Xrotation Yrotation Zrotation
											End Site
											{
												OFFSET 1.281006 3.013344 0.375733
											}
										}
									}
								}
								JOINT RightHandPinky1
								{
									OFFSET -10.518692 -0.960396 -5.730441
									CHANNELS 3 Xrotation Yrotation Zrotation
									JOINT RightHandPinky2
									{
										OFFSET -2.861649 0.000000 0.000000
										CHANNELS 3 Xrotation Yrotation Zrotation
										JOINT RightHandPinky3
										{
											OFFSET -2.863380 0.000000 0.000000
											CHANNELS 3 Xrotation Yrotation Zrotation
											End Site
											{
												OFFSET 0.843597 2.711159 0.369971
											}
										}
									}
								}
							}
							JOINT RSleeve
							{
								OFFSET -6.676277 -0.344902 -1.011730
								CHANNELS 3 Xrotation Yrotation Zrotation
								End Site
								{
									OFFSET 0.000000 14.885353 0.000000
								}
							}
						}
					}
				}
				JOINT Backpack
				{
					OFFSET 0.000000 -2.471497 36.677502
					CHANNELS 3 Xrotation Yrotation Zrotation
					End Site
					{
						OFFSET 0.000000 20.427315 0.000000
					}
				}
				JOINT Hood
				{
					OFFSET 0.000000 18.754097 -10.431000
					CHANNELS 3 Xrotation Yrotation Zrotation
					JOINT Hood1
					{
						OFFSET 0.000000 -5.011002 -7.685901
						CHANNELS 3 Xrotation Yrotation Zrotation
						End Site
						{
							OFFSET 0.000000 9.175140 0.000000
						}
					}
				}
				JOINT LHoodieString
				{
					OFFSET 5.250500 16.397697 3.089900
					CHANNELS 3 Xrotation Yrotation Zrotation
					JOINT LHoodieString1
					{
						OFFSET 0.257700 -6.364304 3.694600
						CHANNELS 3 Xrotation Yrotation Zrotation
						JOINT LHoodieString2
						{
							OFFSET 0.000000 -9.643799 2.679100
							CHANNELS 3 Xrotation Yrotation Zrotation
							End Site
							{
								OFFSET 0.000000 10.009018 0.000000
							}
						}
					}
				}
				JOINT RHoodieString
				{
					OFFSET -5.250500 16.397697 3.089900
					CHANNELS 3 Xrotation Yrotation Zrotation
					JOINT RHoodieString1
					{
						OFFSET -0.257700 -6.364304 3.694600
						CHANNELS 3 Xrotation Yrotation Zrotation
						JOINT RHoodieString2
						{
							OFFSET 0.000000 -9.643799 2.679100
							CHANNELS 3 Xrotation Yrotation Zrotation
							End Site
							{
								OFFSET 0.000000 10.009018 0.000000
							}
						}
					}
				}
			}
			JOINT LBackpack_Strap
			{
				OFFSET 15.223200 -7.719803 -6.610900
				CHANNELS 3 Xrotation Yrotation Zrotation
				End Site
				{
					OFFSET 0.000000 16.040596 0.000000
				}
			}
			JOINT RBackpack_Strap
			{
				OFFSET -15.223000 -7.719803 -6.610900
				CHANNELS 3 Xrotation Yrotation Zrotation
				End Site
				{
					OFFSET 0.000000 16.040596 0.000000
				}
			}
		}
	}
	JOINT BoyFacialAnim_Joint
	{
		OFFSET 1.000000 -82.208099 -1.550900
		CHANNELS 3 Xrotation Yrotation Zrotation
		End Site
		{
			OFFSET 0.000000 30.012791 0.000000
		}
	}
}
MOTION
Frames: 4
Frame Time: 0.033333
-0.237133 79.451332 0.964275 13.949932 -10.857023 0.708700 0.000001 -0.000000 -0.000000 -41.776196 -6.327337 5.481190 61.002428 -0.169958 3.905947 -10.285917 0.092951 -1.082042 -0.000000 -0.000001 0.000001 -0.000000 -0.000001 0.000001 0.000001 0.000001 0.000002 -20.897763 -3.875384 15.105633 26.263452 -2.531995 -3.442342 -13.149461 1.377946 -9.939104 -0.000000 -0.000001 -0.000000 -0.000000 -0.000001 -0.000000 0.000000 0.000000 -0.000001 1.919874 0.062132 3.128930 -5.108325 -8.224915 0.901914 3.703656 -12.478289 5.859319 12.118088 6.829905 -4.433333 -0.737338 20.027397 8.229674 -0.000001 0.000001 0.000002 -0.000001 0.000001 0.000002 -0.000001 0.000001 0.000002 3.544251 4.756010 -11.623015 -54.038817 -33.116432 -50.381555 0.000350 -81.882384 0.000348 -58.768382 25.992596 38.870320 -14.557474 10.837961 12.229972 0.749518 -4.258025 13.305460 -0.000002 -0.000001 0.000001 -0.809546 2.578197 -31.496437 3.095909 5.163769 -61.866959 -0.000001 0.000001 -0.000002 -2.430839 1.729214 -41.460942 2.952354 5.084727 -60.259931 0.000002 -0.000001 0.000000 -6.054138 -0.166577 -49.857587 3.046254 5.137027 -61.313959 -0.000001 0.000001 -0.000002 -8.298334 -6.522650 -38.520160 2.848787 5.024394 -59.084401 0.000002 -0.000001 -0.000000 -0.000001 0.000000 -0.000002 -14.733698 2.115981 -4.463086 72.337529 138.834018 -52.653515 -0.000008 29.080698 0.000013 -49.752450 -7.371315 -31.498756 8.377123 -4.904120 11.022021 21.620211 -18.183893 -18.379219 -0.000003 -0.000000 -0.000004 0.558924 -4.406577 25.436687 1.653034 -3.560357 49.799094 -0.000000 0.000000 0.000004 10.969810 -12.875574 52.800825 6.387584 -4.324398 111.833679 0.000001 0.000001 0.000002 3.705082 -7.151306 57.622454 5.328187 -4.608685 98.293409 0.000000 0.000001 -0.000003 0.474817 -5.172977 58.987672 3.194318 -4.421960 71.674154 -0.000000 -0.000001 0.000000 0.000001 -0.000002 0.000001 0.000000 -0.000001 -0.000001 0.000000 -0.000001 -0.000001 0.000000 -0.000001 -0.000001 0.000000 -0.000001 -0.000001 0.000000 -0.000001 -0.000001 -0.000000 -0.000001 -0.000000 0.000000 -0.000001 -0.000001 0.000000 -0.000001 -0.000001 -0.000000 -0.000001 -0.000000 -0.000000 -0.000001 0.000000 -0.000000 -0.000001 0.000000 0.000001 -0.000000 -0.000000 
0.114335 79.596817 7.105667 14.500954 -12.717925 1.369544 0.000001 0.000001 -0.000000 -45.435074 -6.570813 8.683327 48.863187 -1.893687 4.438733 -12.404429 0.594368 -4.064973 -0.000001 0.000000 0.000000 -0.000001 0.000000 0.000000 -0.000001 0.000001 0.000001 -14.687603 -6.156840 12.533670 24.354776 2.739047 -2.745585 -14.831735 1.690599 -10.954263 0.000000 0.000001 0.000000 0.000000 0.000001 0.000000 0.000003 0.000000 -0.000000 1.499973 1.010096 3.610872 -5.552806 -7.606599 0.688052 3.232148 -11.888591 5.549999 12.347799 6.581709 -4.763821 -0.698160 19.107972 8.108141 0.000004 0.000001 0.000001 0.000004 0.000001 0.000001 0.000004 0.000001 0.000001 3.576669 4.861896 -11.723955 -54.257028 -33.585338 -51.436406 0.000266 -80.812490 0.000257 -58.881982 24.828496 38.092945 -14.557472 10.837961 12.229971 0.749521 -4.258022 13.305460 -0.000001 -0.000000 0.000000 -0.809546 2.578197 -31.496437 3.095907 5.163769 -61.866952 -0.000000 -0.000001 -0.000002 -2.430839 1.729213 -41.460942 2.952354 5.084725 -60.259931 -0.000000 -0.000001 0.000002 -6.054137 -0.166576 -49.857581 3.046253 5.137029 -61.313973 0.000000 -0.000002 0.000001 -8.298332 -6.522648 -38.520163 2.848788 5.024397 -59.084408 -0.000001 0.000000 -0.000002 0.000001 0.000002 0.000001 -14.764157 1.880124 -4.414279 71.996000 138.176858 -52.461215 -0.000003 28.738315 0.000003 -49.368457 -7.659979 -31.650977 8.377124 -4.904120 11.022020 21.620209 -18.183891 -18.379219 -0.000002 0.000001 -0.000002 0.558926 -4.406576 25.436683 1.653034 -3.560356 49.799094 0.000000 0.000000 0.000004 10.969810 -12.875574 52.800822 6.387583 -4.324397 111.833679 0.000001 0.000001 -0.000002 3.705081 -7.151305 57.622461 5.328189 -4.608682 98.293409 -0.000000 -0.000000 0.000004 0.474817 -5.172977 58.987672 3.194320 -4.421958 71.674154 0.000001 -0.000000 0.000000 -0.000003 -0.000004 -0.000001 -0.000000 -0.000003 0.000001 -0.000000 -0.000003 0.000001 -0.000000 -0.000003 0.000001 -0.000000 -0.000003 0.000001 -0.000000 -0.000003 0.000000 -0.000001 -0.000002 -0.000000 -0.000000 -0.000003 0.000001 -0.000000 -0.000003 0.000000 -0.000001 -0.000002 -0.000000 0.000001 -0.000001 0.000000 0.000001 -0.000001 0.000000 0.000001 0.000001 -0.000000 
0.387004 79.518730 13.425432 14.841726 -15.760161 2.278884 -0.000000 -0.000000 -0.000000 -45.110603 -4.807871 12.241440 31.169964 0.945719 5.455858 -13.927812 0.763093 -4.613593 -0.000000 0.000000 0.000000 -0.000000 0.000000 0.000000 -0.000001 0.000001 -0.000001 -8.496353 -8.635294 9.558803 22.188995 7.310555 -1.877246 -15.630953 2.031932 -12.742213 -0.000000 0.000001 0.000000 -0.000000 0.000001 0.000000 0.000001 0.000001 -0.000000 1.048939 2.280963 3.663665 -5.992542 -6.725334 0.632837 2.765771 -11.018183 5.361344 12.529208 6.353186 -5.056702 -0.493839 18.688798 7.664077 -0.000000 -0.000001 -0.000000 -0.000000 -0.000001 -0.000000 -0.000000 -0.000001 -0.000000 3.339852 5.690076 -11.229703 -54.661895 -33.372120 -53.179091 0.000372 -80.058232 0.000359 -58.407891 24.525357 36.868774 -14.557478 10.837961 12.229972 0.749521 -4.258023 13.305461 0.000001 -0.000000 -0.000001 -0.809547 2.578195 -31.496434 3.095908 5.163768 -61.866952 -0.000001 0.000000 0.000000 -2.430838 1.729212 -41.460939 2.952353 5.084724 -60.259938 0.000001 -0.000001 0.000002 -6.054139 -0.166578 -49.857584 3.046255 5.137025 -61.313966 -0.000000 -0.000001 -0.000002 -8.298336 -6.522651 -38.520160 2.848788 5.024396 -59.084408 0.000001 -0.000001 0.000001 -0.000000 0.000001 -0.000001 -14.716510 2.261573 -4.504263 71.979955 137.804216 -52.640712 0.000009 28.737495 -0.000004 -49.397741 -7.743397 -32.375155 8.377125 -4.904121 11.022021 21.620209 -18.183898 -18.379223 -0.000001 0.000001 -0.000002 0.558924 -4.406577 25.436688 1.653033 -3.560356 49.799094 -0.000001 0.000000 0.000002 10.969811 -12.875574 52.800822 6.387584 -4.324399 111.833679 0.000001 0.000000 -0.000002 3.705081 -7.151304 57.622461 5.328188 -4.608683 98.293409 -0.000000 0.000000 0.000004 0.474816 -5.172977 58.987672 3.194318 -4.421961 71.674154 0.000001 -0.000001 0.000002 0.000000 -0.000000 0.000001 0.000001 -0.000002 0.000001 0.000001 -0.000002 0.000001 0.000001 -0.000002 0.000001 0.000001 -0.000002 0.000001 0.000001 -0.000002 0.000001 0.000000 0.000000 0.000000 0.000001 -0.000002 0.000001 0.000001 -0.000002 0.000001 0.000000 0.000000 0.000000 0.000001 0.000000 0.000000 0.000001 0.000000 0.000000 -0.000000 -0.000000 -0.000000 
0.623675 79.324203 19.875605 14.836131 -19.907595 3.181199 0.000001 -0.000001 0.000000 -39.451019 -1.321663 15.491374 7.755549 4.552987 6.836641 -13.227711 0.365035 -2.090262 0.000001 -0.000002 0.000001 0.000001 -0.000002 0.000001 -0.000000 -0.000001 0.000002 -3.787328 -10.856391 6.405806 21.750464 7.416613 -2.086333 -14.674258 4.483938 -13.144846 0.000003 0.000001 0.000001 0.000003 0.000001 0.000001 0.000000 0.000000 0.000001 0.718716 3.775766 3.530534 -6.289176 -5.701883 0.647072 2.440316 -9.997935 5.220775 12.627466 6.186252 -5.158721 -0.167267 18.782803 7.292581 -0.000001 0.000000 -0.000000 -0.000001 0.000000 -0.000000 -0.000001 0.000000 -0.000000 3.006230 6.707875 -10.533496 -54.989337 -32.844597 -54.653432 -0.000340 -79.620055 -0.000336 -57.655498 24.900522 35.665585 -14.557474 10.837961 12.229971 0.749519 -4.258024 13.305460 0.000002 -0.000000 -0.000001 -0.809546 2.578196 -31.496437 3.095908 5.163767 -61.866952 -0.000001 -0.000001 -0.000004 -2.430838 1.729213 -41.460942 2.952354 5.084728 -60.259931 0.000001 -0.000001 0.000002 -6.054137 -0.166576 -49.857584 3.046255 5.137026 -61.313966 -0.000000 0.000001 0.000001 -8.298333 -6.522648 -38.520163 2.848789 5.024395 -59.084408 0.000001 0.000000 -0.000000 0.000001 0.000001 0.000004 -14.545900 3.233274 -4.337250 72.822896 138.026348 -53.401066 0.000011 28.844688 -0.000013 -49.028392 -7.767065 -33.116623 8.377125 -4.904119 11.022021 21.620211 -18.183893 -18.379219 0.000003 -0.000001 -0.000001 0.558925 -4.406578 25.436683 1.653035 -3.560355 49.799090 -0.000001 -0.000000 0.000004 10.969808 -12.875575 52.800822 6.387584 -4.324398 111.833679 -0.000000 0.000000 -0.000002 3.705081 -7.151306 57.622454 5.328189 -4.608683 98.293403 -0.000000 -0.000000 0.000000 0.474816 -5.172975 58.987672 3.194318 -4.421960 71.674154 -0.000000 -0.000000 0.000002 0.000002 -0.000001 0.000001 -0.000000 0.000000 -0.000000 -0.000000 0.000000 -0.000000 -0.000000 0.000000 -0.000000 -0.000000 0.000000 -0.000000 -0.000000 0.000000 -0.000000 -0.000000 -0.000003 -0.000000 -0.000000 0.000000 -0.000000 -0.000000 0.000000 -0.000000 -0.000000 -0.000003 -0.000000 -0.000001 0.000002 -0.000000 -0.000001 0.000002 -0.000000 0.000001 -0.000001 0.000000 
